# xmcd
# Track frame offsets:
# 150
# 19502
# 40207
# 55517
# 77347
# 98880
# 121672
# 153555
# 175215
# 192387
#
# Disc length: 2755 seconds
# Revision: 0
# Processed by: cddbd v1.5.1PL2 Copyright (c) Steve Scherf et al.
# Submitted via: VisiTrax 2.9.10.228 - For more info visit www.synapsa.com
#
DISCID=6d0ac10a
DTITLE=Andreas Wahllof - The Way It Should Be
DYEAR=1994
DGENRE=Blues
TTITLE0=Stick To You
TTITLE1=Gotta Make Up My Mind
TTITLE2=Early In The Morning
TTITLE3=Is This The Way It Should Be
TTITLE4=Susie-Q
TTITLE5=Cross-cut Saw
TTITLE6=What Happend To My Power ?
TTITLE7=Everybody's got something to hide
TTITLE8=When Girls Do It
TTITLE9=So Glad
EXTD=
EXTT0=
EXTT1=
EXTT2=
EXTT3=
EXTT4=
EXTT5=
EXTT6=
EXTT7=
EXTT8=
EXTT9=
PLAYORDER=
